<?xml version="1.0" encoding="UTF-8" standalone="no"?>
<!-- Created with Inkscape (http://www.inkscape.org/) -->
<svg
   xmlns:dc="http://purl.org/dc/elements/1.1/"
   xmlns:cc="http://creativecommons.org/ns#"
   xmlns:rdf="http://www.w3.org/1999/02/22-rdf-syntax-ns#"
   xmlns:svg="http://www.w3.org/2000/svg"
   xmlns="http://www.w3.org/2000/svg"
   xmlns:sodipodi="http://sodipodi.sourceforge.net/DTD/sodipodi-0.dtd"
   xmlns:inkscape="http://www.inkscape.org/namespaces/inkscape"
   width="224.99998"
   height="150"
   id="svg2"
   sodipodi:version="0.32"
   inkscape:version="0.46"
   version="1.0"
   sodipodi:docbase="F:\Dokumente und Einstellungen\user\Desktop\privat"
   sodipodi:docname="Invisible Pink Unicorn black.svg"
   inkscape:output_extension="org.inkscape.output.svg.inkscape"
   sodipodi:modified="true">
  <defs
     id="defs4">
    <inkscape:perspective
       sodipodi:type="inkscape:persp3d"
       inkscape:vp_x="0 : 91.5 : 1"
       inkscape:vp_y="0 : 1000 : 0"
       inkscape:vp_z="263 : 91.5 : 1"
       inkscape:persp3d-origin="131.5 : 61 : 1"
       id="perspective14" />
    <linearGradient
       id="linearGradient4183">
      <stop
         style="stop-color:#ffc0cb;stop-opacity:1;"
         offset="0"
         id="stop4185" />
      <stop
         id="stop4191"
         offset="0.11504425"
         style="stop-color:#ffc0cb;stop-opacity:0.49803922;" />
      <stop
         style="stop-color:#ffc0cb;stop-opacity:0.24705882;"
         offset="0.28733653"
         id="stop4193" />
      <stop
         style="stop-color:#ffc0cb;stop-opacity:0;"
         offset="1"
         id="stop4187" />
    </linearGradient>
  </defs>
  <sodipodi:namedview
     id="base"
     pagecolor="#ffffff"
     bordercolor="#666666"
     borderopacity="1.0"
     inkscape:pageopacity="0.0"
     inkscape:pageshadow="2"
     inkscape:zoom="1.8375"
     inkscape:cx="119.09085"
     inkscape:cy="94.993597"
     inkscape:document-units="px"
     inkscape:current-layer="layer2"
     inkscape:window-width="801"
     inkscape:window-height="667"
     inkscape:window-x="22"
     inkscape:window-y="22"
     showgrid="false" />
  <metadata
     id="metadata7">
    <rdf:RDF>
      <cc:Work
         rdf:about="">
        <dc:format>image/svg+xml</dc:format>
        <dc:type
           rdf:resource="http://purl.org/dc/dcmitype/StillImage" />
      </cc:Work>
    </rdf:RDF>
  </metadata>
  <g
     inkscape:groupmode="layer"
     id="layer2"
     inkscape:label="unicorn"
     style="display:inline"
     transform="translate(-13.44662,-20.090429)">
    <path
       style="fill:#000000;fill-opacity:1"
       d="M 170.44658,169.90774 C 166.47472,168.79974 171.00959,161.01004 175.64453,160.97904 C 180.11352,160.94914 180.46496,160.01544 180.0663,149.23084 C 179.63474,137.55563 179.42285,137.19503 168.74036,129.95233 C 160.9698,124.68383 154.89112,117.66693 152.06466,110.70272 C 150.90159,107.83692 149.57656,105.14742 149.12013,104.72602 C 148.66372,104.30462 143.57314,104.32472 137.80774,104.77062 C 131.0539,105.29302 125.29135,105.22512 121.60744,104.57992 C 115.9363,103.58652 113.51132,102.55652 100.64235,95.675121 C 94.15097,92.20392 93.779489,92.12462 86.824444,92.72482 C 82.89348,93.06402 77.260074,93.79382 74.30575,94.34662 C 69.111849,95.318421 68.915272,95.466621 68.36025,98.827422 C 66.861732,107.90152 68.598062,113.27793 73.027042,113.27793 C 74.320569,113.27793 75.752314,114.08333 76.308365,115.12383 C 77.593324,117.52823 77.585987,124.72973 76.298578,124.72973 C 75.128601,124.72973 70.624137,120.39763 70.624137,119.27243 C 70.624137,118.84763 69.01602,117.50393 67.050542,116.28643 L 63.476947,114.07293 L 63.26499,103.06602 C 63.148415,97.012221 63.466475,91.285519 63.971781,90.340019 C 64.477097,89.394419 66.287803,88.341019 67.995582,87.998919 C 73.589803,86.878418 80.153724,84.512918 80.153724,83.617417 C 80.153724,83.134717 79.739987,82.739817 79.2343,82.739817 C 77.91614,82.739817 76.565272,79.874516 74.943184,73.638015 C 73.78268,69.176214 73.726018,67.041413 74.628279,61.772312 C 75.646039,55.82871 75.572947,55.04851 73.652792,51.359309 C 72.511158,49.166008 71.577097,46.607807 71.577097,45.674507 C 71.577097,44.741307 70.947495,43.144107 70.177971,42.125206 C 68.490453,39.891006 68.381979,40.453506 69.745176,44.369607 C 70.529861,46.623707 70.409455,49.100408 69.23481,54.86771 C 68.311345,59.401911 67.946952,63.978112 68.322247,66.328413 C 69.038462,70.813714 67.454578,73.196615 63.75706,73.196615 C 59.902466,73.196615 57.517058,70.690514 56.397989,65.465013 C 55.824165,62.785612 53.567293,57.09481 51.38271,52.818809 C 49.19812,48.542908 47.137451,44.428807 46.80344,43.676507 C 46.469427,42.924206 44.72394,41.812306 42.924565,41.205606 C 40.407086,40.356806 39.65298,39.572206 39.65298,37.801905 C 39.65298,35.729505 40.002954,35.531805 43.1799,35.809105 L 46.706819,36.117005 L 45.816842,33.009404 C 44.646418,28.922503 45.270453,28.512203 48.744445,31.084303 L 51.618225,33.212004 L 54.044533,31.300803 C 55.379001,30.249603 57.739918,27.635102 59.29101,25.490802 C 62.968868,20.4065 65.308772,19.5852 72.501628,20.854001 C 76.923041,21.633901 78.609073,21.597101 79.692016,20.697101 C 80.470088,20.0504 81.100117,19.896 81.092093,20.3539 C 81.067374,21.764101 79.762582,23.202701 77.873179,23.902901 C 74.309524,25.223602 77.292075,25.672002 82.045243,24.530102 C 86.693279,23.413401 87.057071,23.474201 90.647785,25.966102 C 93.306917,27.811502 95.221077,28.446903 97.231128,28.151403 C 100.80984,27.625502 100.00821,29.062803 95.7228,30.855903 C 93.931209,31.605503 92.712374,32.619104 93.014292,33.108304 C 93.346045,33.645904 94.460807,33.588204 95.83199,32.962604 C 97.570314,32.169404 99.161708,32.289404 102.63843,33.475704 C 105.13415,34.327304 108.17179,35.024104 109.38874,35.024104 C 112.45805,35.024104 112.15358,36.597705 108.7425,38.364205 C 107.17011,39.178405 105.88362,40.028106 105.88362,40.252306 C 105.88362,40.476606 107.95682,40.414106 110.49074,40.113606 C 114.72463,39.611406 115.46916,39.851006 119.6813,43.070807 C 122.2022,44.997807 124.84614,46.351007 125.55673,46.077907 C 127.93057,45.165707 126.88432,46.408407 124.03715,47.882808 C 122.4908,48.683608 120.34665,49.338808 119.27236,49.338808 C 116.46834,49.338808 116.82006,50.824409 121.22823,57.60001 C 125.42447,64.049812 130.35217,67.270213 139.23718,69.369314 C 153.39547,72.714415 162.00536,74.998915 164.69086,76.123015 C 167.34848,77.235616 168.19506,77.191116 171.14046,75.784615 C 173.07677,74.859915 174.97652,73.036815 175.56993,71.533914 C 177.78953,65.912113 179.27283,64.051512 183.24389,61.907812 C 188.96597,58.818811 196.69863,59.342411 199.86904,63.033512 C 202.12618,65.661313 202.28314,66.306413 204.00117,80.016116 C 205.40907,91.250919 207.3856,97.412521 210.8487,101.36242 C 213.56385,104.45922 214.15576,104.68902 219.41502,104.68902 C 226.56439,104.68902 231.3027,102.76402 235.29863,98.235921 L 238.44661,94.66872 L 236.91801,98.486021 C 235.3377,102.43242 230.71844,107.87452 227.38585,109.71622 C 226.3376,110.29552 223.33577,111.29742 220.71514,111.94253 L 215.95035,113.11553 L 221.77205,113.19673 C 226.36617,113.26083 228.71414,112.71193 232.90719,110.59392 C 237.67886,108.18362 238.11661,108.10462 237.20036,109.81912 C 235.51264,112.97713 227.82065,120.78253 224.16912,123.04253 C 221.42822,124.73893 219.29786,125.16373 213.43657,125.18293 C 206.66667,125.20503 205.85174,124.98733 202.46041,122.25103 C 200.44559,120.62523 194.31267,119.59723 193.07934,110.08052 C 192.38413,104.71622 193.07934,93.24062 193.07934,93.24062 C 193.07934,93.24062 194.77468,83.516317 192.48467,76.525516 C 190.70015,71.077814 184.74079,68.352413 180.74847,74.602315 C 178.91349,77.474916 176.59767,80.334617 175.6022,80.957217 C 173.84539,82.055917 173.86093,82.221717 176.13122,86.603818 C 179.4207,92.95312 179.82179,100.30322 177.48266,111.36922 L 175.56633,120.43523 L 177.89052,123.82693 C 179.16884,125.69233 181.71557,128.67523 183.54991,130.45573 C 187.32144,134.11643 187.44885,135.24663 186.26836,154.56754 C 185.7352,163.29394 185.41237,164.72444 183.88596,165.12414 C 182.91486,165.37844 182.12032,166.24194 182.12032,167.04304 C 182.12032,167.84414 181.36986,168.72034 180.45264,168.99014 C 177.37262,169.89614 172.12888,170.37704 170.44658,169.90774 z M 53.470881,50.176208 C 53.470881,48.456508 53.248327,48.335708 51.996339,49.376308 C 50.818578,50.355108 50.770625,50.759909 51.7581,51.387109 C 53.458455,52.467309 53.470881,52.458509 53.470881,50.176208 z M 124.22808,160.03154 C 123.04879,159.54484 122.08392,158.67024 122.08392,158.08804 C 122.08392,156.42924 127.47517,151.45054 129.27139,151.45054 C 131.27288,151.45054 141.64977,145.33043 145.19316,142.06023 C 149.68315,137.91643 148.63015,132.43083 141.56564,123.16263 C 138.74948,119.46803 134.60965,109.00502 135.57963,108.03372 C 135.76147,107.85162 138.4739,107.56142 141.60725,107.38872 L 147.30425,107.07482 L 150.34531,112.80073 C 154.24704,120.14703 153.92694,119.41383 156.38599,126.63833 C 160.15028,137.69743 160.21479,137.34943 153.43667,142.54843 C 150.13276,145.08263 145.90791,148.48013 144.04809,150.09844 C 142.18828,151.71674 139.90972,153.31624 138.98464,153.65274 C 138.05955,153.98924 136.90672,155.30744 136.42279,156.58204 C 135.93886,157.85674 135.19483,159.10654 134.7694,159.35944 C 132.98706,160.41884 126.21279,160.85084 124.22808,160.03154 z M 37.270584,117.99023 C 37.270584,115.83303 39.906915,107.24702 41.50478,104.20022 C 42.058677,103.14412 44.515709,99.271222 46.964861,95.593921 C 49.414012,91.91652 51.685132,87.842019 52.011797,86.539518 C 52.511814,84.545718 54.067967,83.660117 61.853173,80.938717 C 66.939265,79.160716 71.551024,77.537316 72.101519,77.331016 C 72.652015,77.124716 73.792973,78.406116 74.63698,80.178517 L 76.171539,83.401117 L 67.441846,86.044318 C 57.40459,89.083319 55.465043,90.552719 52.102147,97.665321 C 50.564824,100.91682 48.810018,103.15092 47.359615,103.70312 C 44.271857,104.87882 43.558043,107.64902 45.279668,111.77533 L 46.702064,115.18453 L 43.194547,117.57133 C 38.929905,120.47333 37.270584,120.59063 37.270584,117.99023 z M 32.729994,37.592905 C 28.827615,35.849105 30.370029,32.671604 34.536269,33.871804 C 36.54868,34.451504 36.737194,34.829404 35.87002,36.545805 C 35.038755,38.191105 34.483323,38.376305 32.729994,37.592905 z M 25.677982,35.251304 C 22.991794,34.682604 22.709709,32.161104 25.332272,32.161104 C 26.595207,32.161104 27.839947,32.503704 28.09836,32.922404 C 28.871517,34.175204 27.378856,35.611405 25.677982,35.251304 z M 18.211413,31.713903 C 18.211413,30.860203 18.770122,30.527103 19.640852,30.861703 C 21.490741,31.572603 21.490741,33.115404 19.640852,33.115404 C 18.85466,33.115404 18.211413,32.484704 18.211413,31.713903 z M 13.44662,30.282403 C 13.44662,29.774003 14.089867,29.605303 14.876058,29.907403 C 16.706377,30.610703 16.706377,31.206803 14.876058,31.206803 C 14.089867,31.206803 13.44662,30.790803 13.44662,30.282403 z"
       id="path2222"
       sodipodi:nodetypes="cssssssssssssssscccssssssssssssssssssccccccsssssssssssssssssssssssssssssscccscccsssssscsssscccsssssccssccssssscccssssssccssssscccsscccccssccssccssccssc" />
  </g>
</svg>
