<svg xmlns="http://www.w3.org/2000/svg" width="225" height="150" version="1">
    <path stroke="#000000" stroke-width="10" d="m155.04408,144.66818c-3.82278,-0.92508 0.57342,-8.32577 4.96961,-8.32577c4.30062,0 4.58733,-0.92508 4.20506,-10.8235c-0.38228,-10.17594 -0.57342,-11.10102 -10.79935,-17.57663c-7.45442,-4.62542 -13.37973,-11.10102 -15.9601,-17.57663c-0.95569,-2.77525 -2.38924,-4.62542 -2.86708,-5.55052l-10.70378,0c-6.49872,0.92508 -12.04175,0.92508 -15.48227,0c-5.44746,-0.92508 -7.64556,-1.85017 -20.06959,-8.32577c-6.21202,-2.77525 -6.68986,-2.77525 -13.18859,-2.77525c-3.82278,0.92508 -9.17468,0.92508 -11.94618,1.85017c-5.73417,0.92508 -5.73417,0.92508 -5.73417,4.62542c-1.91139,8.32577 0,13.87628 3.82278,13.87628c0.95569,0 1.91139,0.92508 2.86708,1.85017c0.95569,2.77525 0.95569,9.25086 0,9.25086c-1.91139,0 -5.73417,-3.88536 -5.73417,-4.90295c0,-0.37004 -1.91139,-1.85017 -3.82278,-2.77525l-1.91139,-3.70034l-0.95569,-10.17594c0,-5.55052 0.19114,-10.8235 0.66899,-11.74859s2.1981,-1.85017 3.82278,-2.2202c5.35189,-1.85017 11.65948,-3.70034 11.65948,-4.62542s-0.47785,-0.92508 -0.95569,-0.92508c-1.24241,0 -2.58038,-2.77525 -4.10948,-8.32577c-0.95569,-4.62542 -0.95569,-6.47559 0,-11.10102c0.95569,-5.55052 0.95569,-6.47559 -0.95569,-10.17594c-0.95569,-1.85017 -1.91139,-4.62542 -1.91139,-5.55052s-0.47785,-2.49773 -1.24241,-3.42281c-1.62469,-1.85017 -1.62469,-1.48013 -0.38228,2.2202c0.95569,1.85017 0.66899,4.3479 -0.47785,9.7134c-0.95569,3.97787 -1.24241,8.32577 -0.95569,10.36095c0.76456,3.70034 -0.76456,6.47559 -4.30062,6.47559s-5.73417,-2.77525 -6.881,-7.40069c-0.76456,-2.77525 -2.86708,-8.04824 -4.77847,-12.02611l-4.3962,-8.41828c-0.38228,-0.92508 -1.91139,-1.85017 -3.82278,-2.49773c-2.29367,-0.92508 -3.05823,-1.57264 -3.05823,-3.2378c0,-1.85017 0.47785,-1.85017 3.4405,-1.85017l3.4405,0.37004l-0.95569,-2.77525c-0.95569,-4.2554 -0.47785,-4.62542 2.86708,-1.85017l2.86708,1.85017l2.1981,-1.85017c1.33797,-0.92508 3.53607,-2.77525 4.96961,-4.62542c3.53607,-4.62542 5.73417,-5.55052 12.71075,-4.62542c4.77847,0.74006 6.68986,0.74006 7.64556,0c0.95569,-0.37004 1.91139,-0.55505 1.91139,0c0,0.92508 -0.95569,1.85017 -2.86708,2.77525c-3.82278,1.20261 -0.95569,1.85017 3.82278,0.92508c4.30062,-0.92508 4.77847,-0.92508 8.12341,0.92508c1.91139,2.12769 3.82278,3.05278 5.73417,2.77525c3.34493,-0.37004 2.67595,0.92508 -1.43355,2.77525c-1.91139,0.92508 -2.86708,1.85017 -2.67595,2.2202l2.86708,0c1.52911,-0.92508 3.05823,-0.92508 6.40316,0c1.91139,0.92508 4.77847,0.92508 6.02088,0.92508c2.86708,0 2.67595,1.29512 -0.57342,2.96028c-1.62469,0.92508 -2.86708,1.38763 -2.86708,1.85017l3.82278,0c4.01392,-0.64756 4.77847,-0.37004 8.60125,2.77525c2.58038,1.85017 5.06518,2.77525 5.73417,2.77525c2.29367,-0.92508 1.24241,0 -1.43355,1.48013c-1.91139,0.92508 -3.82278,1.48013 -4.77847,1.48013c-2.86708,0 -2.67595,1.38763 1.91139,7.67821c3.82278,6.19807 8.60125,9.25086 17.20251,11.10102c13.37973,3.2378 21.98098,5.36549 23.89237,6.47559c2.58038,0.92508 3.34493,0.92508 6.21202,-0.27752c1.91139,-0.92508 3.53607,-2.59024 4.10948,-3.97787c2.86708,-5.27299 3.82278,-6.93814 7.64556,-8.97333c5.73417,-2.77525 13.37973,-2.49773 16.24681,0.92508c2.86708,2.40523 2.86708,2.96028 3.82278,15.72646c0.95569,10.17594 2.86708,15.72646 6.68986,19.4268c2.86708,2.77525 3.82278,3.05278 8.60125,3.05278c6.68986,0 11.46834,-1.85017 15.29113,-6.10557l2.86708,-3.2378l-0.95569,3.70034c-1.52911,3.70034 -5.73417,8.51078 -9.17468,10.17594c-0.95569,0.55505 -3.82278,1.48013 -6.21202,2.12769l-4.77847,0.92508l5.35189,0c4.30062,0 6.68986,-0.46254 10.51264,-2.40523c4.49176,-2.77525 4.77847,-2.77525 4.10948,-0.92508c-1.91139,2.77525 -9.36582,10.17594 -12.42403,12.02611c-2.86708,0.92508 -4.77847,1.85017 -10.51264,1.85017c-6.68986,0 -7.45442,0 -10.51264,-2.77525c-1.91139,-1.85017 -7.64556,-2.77525 -9.17468,-12.02611c-0.95569,-4.99546 0,-15.54143 0,-15.54143s1.52911,-9.25086 -0.66899,-15.72646c-1.62469,-5.08797 -7.35885,-7.40069 -11.18162,-1.85017c-1.24241,2.77525 -3.82278,5.55052 -4.77847,5.92054c-1.91139,0.92508 -1.91139,0.92508 0.95569,4.99546c3.05823,6.29058 3.4405,12.9512 1.14683,23.12714l-1.91139,8.32577l2.58038,3.3303c0.95569,1.85017 3.82278,4.62542 4.96961,6.47559c3.82278,3.70034 3.82278,4.62542 2.86708,22.20205c-0.47785,8.32577 -0.95569,9.7134 -2.29367,10.17594c-0.95569,0.18501 -1.72025,0.92508 -1.72025,1.85017s-0.95569,1.38763 -1.91139,1.85017c-2.86708,0.64756 -7.64556,1.11011 -9.55695,0.64756l0.57342,2.40523l0.00002,0.00003l0,0.00002zm-111.81629,-110.82523c0,-1.48013 -0.19114,-1.66516 -1.43355,-0.64756c-0.95569,0.92508 -1.14683,1.29512 -0.19114,1.85017c1.62469,0.92508 1.62469,0.92508 1.62469,-1.11011l0,-0.09251zm67.66319,101.8519c-1.14683,-0.46254 -2.10253,-1.29512 -2.10253,-1.85017c0,-1.57264 5.16075,-6.10557 6.881,-6.10557c1.91139,0 11.85061,-5.73553 15.29113,-8.69581c4.20506,-3.88536 3.24936,-8.97333 -3.53607,-17.57663c-1.91139,-3.3303 -5.73417,-12.9512 -5.73417,-13.87628c0.95569,-0.18501 2.86708,-0.46254 6.68986,-0.64756l5.73417,-0.27752l2.86708,5.27299c3.82278,6.84564 3.82278,6.10557 5.73417,12.76618c3.82278,10.17594 3.82278,9.99093 -2.86708,14.80136l-9.55695,6.93814c-1.91139,1.48013 -3.82278,2.96028 -4.77847,3.3303c-0.95569,0.27752 -1.91139,1.48013 -1.91139,2.77525c0,1.11011 -0.95569,2.2202 -0.95569,2.49773c-1.91139,0.92508 -8.02784,1.38763 -9.93923,0.55505l-1.81583,0.09251l-0.00001,-0.00002l0.00001,0.00002zm-83.14545,-38.85359c0,-2.12769 2.58038,-9.99093 4.10948,-12.9512l5.73417,-7.86322c2.86708,-3.42281 4.77847,-7.12316 4.77847,-8.32577c0.95569,-1.85017 1.91139,-2.77525 9.55695,-5.27299l9.55695,-3.3303c0.95569,-0.18501 1.91139,0.92508 2.86708,2.77525l1.91139,2.77525l-8.60125,2.59024c-9.55695,2.77525 -11.46834,4.16289 -14.33542,10.73099c-0.95569,2.96028 -2.86708,5.08797 -4.77847,5.55052c-2.86708,1.11011 -3.82278,3.70034 -1.91139,7.40069l0.95569,3.14529l-2.86708,2.49773c-4.01392,2.77525 -5.73417,2.77525 -5.73417,0.37004l-1.24241,-0.09251l0.00002,0l0,-0.00001zm-4.30062,-74.46938c-3.82278,-1.57264 -2.29367,-4.62542 1.72025,-3.42281c1.91139,0.55505 2.86708,0.92508 1.91139,2.49773c-0.95569,1.48013 -0.95569,1.66516 -2.86708,0.92508l-0.76456,0l0,-0.00001zm-6.68986,-2.12769c-2.67595,-0.55505 -2.86708,-2.77525 -0.38228,-2.77525c0.95569,0 1.91139,0.18501 1.91139,0.55505c0,1.20261 -0.95569,2.49773 -2.86708,2.2202l1.33797,0l0,0.00001l0,-0.00001zm-7.16772,-3.3303c0,-0.74006 0.47785,-1.11011 1.33797,-0.74006c1.72025,0.55505 1.72025,1.94268 0,1.94268c-0.76456,0 -1.33797,-0.55505 -1.33797,-1.29512l0,0.09251zm-4.58733,-1.29512c0,-0.46254 0.57342,-0.64756 1.33797,-0.37004c1.91139,0.64756 1.91139,1.20261 0,1.20261l-1.33797,0l0,-0.83258z" id="svg_1" fill="#ffffff"/>
</svg>
